<mxfile host="app.diagrams.net" modified="2023-04-26T10:36:46.574Z" agent="Mozilla/5.0 (X11; Linux x86_64) AppleWebKit/537.36 (KHTML, like Gecko) Chrome/110.0.0.0 Safari/537.36" version="21.2.2" etag="KqiIp_golK9laRyWaFn5" type="github">
  <diagram name="第 1 页" id="1jH962XLNqfELUTyznth">
    <mxGraphModel>
      <root>
        <mxCell id="0" />
        <mxCell id="1" parent="0" />
      </root>
    </mxGraphModel>
  </diagram>
</mxfile>
